<?xml version="1.0" encoding="utf-8"?>
<!-- Generator: Adobe Illustrator 23.0.5, SVG Export Plug-In . SVG Version: 6.00 Build 0)  -->
<svg version="1.1" id="Layer_1" xmlns="http://www.w3.org/2000/svg" xmlns:xlink="http://www.w3.org/1999/xlink" x="0px" y="0px"
	 viewBox="0 0 512 234.5" style="enable-background:new 0 0 512 234.5;" xml:space="preserve">
<style type="text/css">
	.st0{fill:#161616;}
</style>
<g>
	<g>
		<g>
			<path class="st0" d="M401.1,149.1c-23.5,0-42.7,19.1-42.7,42.7c0,23.5,19.1,42.7,42.7,42.7c23.5,0,42.7-19.1,42.7-42.7
				C443.7,168.3,424.6,149.1,401.1,149.1z M401.1,217.4c-14.1,0-25.6-11.5-25.6-25.6s11.5-25.6,25.6-25.6s25.6,11.5,25.6,25.6
				S415.2,217.4,401.1,217.4z"/>
		</g>
	</g>
	<g>
		<g>
			<path class="st0" d="M110.9,149.1c-23.5,0-42.7,19.1-42.7,42.7c0,23.5,19.1,42.7,42.7,42.7c23.5,0,42.7-19.1,42.7-42.7
				C153.6,168.3,134.5,149.1,110.9,149.1z M110.9,217.4c-14.1,0-25.6-11.5-25.6-25.6s11.5-25.6,25.6-25.6s25.6,11.5,25.6,25.6
				S125,217.4,110.9,217.4z"/>
		</g>
	</g>
	<g>
		<g>
			<path class="st0" d="M503.5,149.1V97.9c0-3.7-2.3-6.9-5.8-8.1l-48.2-16.1C431.4,43,406.4,13.8,351.4,4.1c-0.1,0-0.2,0-0.3-0.1
				C249.4-10.1,173,12.9,124,72.2C67.2,73.2,8.5,91.1,8.5,123.5v25.6c-4.7,0-8.5,3.8-8.5,8.5v34.1c0,4.7,3.8,8.5,8.5,8.5h34.1
				c4.7,0,8.5-3.8,8.5-8.5c0-32.9,26.8-59.7,59.7-59.7s59.7,26.8,59.7,59.7c0,4.7,3.8,8.5,8.5,8.5h153.6c4.7,0,8.5-3.8,8.5-8.5
				c0-32.9,26.8-59.7,59.7-59.7s59.7,26.8,59.7,59.7c0,4.7,3.8,8.5,8.5,8.5h34.1c4.7,0,8.5-3.8,8.5-8.5v-34.1
				C512,153,508.2,149.1,503.5,149.1z M393,37c14.8,9.1,25.9,21.1,35.4,35.4h-35.8L393,37z M290.1,17.2c18.3-0.2,37.7,1,58.4,3.8
				c10.3,1.8,19.3,4.4,27.4,7.6l-0.4,43.7h-85.4V17.2z M273.1,17.9v54.4H147C178.6,39.7,220.3,21.7,273.1,17.9z M494.9,183.3h-17.5
				c-4.3-38.3-36.9-68.3-76.3-68.3s-72.1,29.9-76.4,68.3H187.3C183,145,150.4,115,111,115s-72.1,29.9-76.4,68.3H17.1v-17.1
				c4.7,0,8.5-3.8,8.5-8.5v-25.6h8.5c4.7,0,8.5-3.8,8.5-8.5s-3.8-8.5-8.5-8.5h-4.4c11.5-12.5,46.9-25.6,98.3-25.6h314.3l44.1,14.7
				v10.9h-8.5c-4.7,0-8.5,3.8-8.5,8.5s3.8,8.5,8.5,8.5h8.5v25.6c0,4.7,3.8,8.5,8.5,8.5V183.3z"/>
		</g>
	</g>
</g>
</svg>
