<svg height="499pt" viewBox="-49 0 499 499.312" width="499pt" xmlns="http://www.w3.org/2000/svg"><path d="m400.15625 323.3125v-208h-256v-16h16v-48h-12.902344l6.054688-18.167969-33.152344-33.144531-33.152344 33.152344 6.054688 18.160156h-12.902344v48h16v304h-36.945312l-24.261719 48.527344c-19.578125 2.585937-34.792969 19.199218-34.792969 39.472656v8h240v-8c0-20.273438-15.214844-36.886719-34.792969-39.472656l-24.261719-48.527344h-36.945312v-80zm-16-192v176h-240v-176zm-240-48h-48v-16h48zm-38.847656-45.832031 14.847656-14.855469 14.847656 14.847656-4.617187 13.839844h-20.460938zm117.480468 445.832031h-205.265624c3.304687-9.3125 12.199218-16 22.632812-16h160c10.433594 0 19.328125 6.6875 22.632812 16zm-35.578124-32h-134.109376l16-32h102.109376zm-75.054688-48v-304h16v304zm0 0"/><path d="m201.597656 275.3125h125.117188l20.183594-100.914062-48.8125 19.523437-33.929688-33.921875-33.929688 33.921875-48.816406-19.523437zm32.488282-62.609375 30.070312-30.078125 30.070312 30.078125 31.183594-12.480469-5.414062 27.089844h-23.839844v16h20.640625l-3.199219 16h-98.882812l-3.199219-16h68.640625v-16h-71.839844l-5.417968-27.089844zm0 0"/></svg>