<?xml version="1.0" encoding="utf-8"?>
<!-- Generator: Adobe Illustrator 23.0.5, SVG Export Plug-In . SVG Version: 6.00 Build 0)  -->
<svg version="1.1" id="Capa_1" xmlns="http://www.w3.org/2000/svg" xmlns:xlink="http://www.w3.org/1999/xlink" x="0px" y="0px"
	 viewBox="0 0 428.9 428.9" style="enable-background:new 0 0 428.9 428.9;" xml:space="preserve">
<style type="text/css">
	.st0{fill:#161616;}
</style>
<g>
	<g>
		<g>
			<path class="st0" d="M109.8,335.5c-2.2-23.6-13-40.8-24-58.5C64,242.5,41,205.9,93,112.3c1.9-3.6,0.5-8-3-9.9
				c-3.5-2-8-0.7-10,2.8c0,0,0,0,0,0c-56.2,101.2-30.8,141.4-6.8,179.6c10.2,16,20,32,22,52c0.4,4,3.9,7,8,6.6
				S110.2,339.5,109.8,335.5z"/>
		</g>
	</g>
	<g>
		<g>
			<path class="st0" d="M286.5,112.6c-2.3,6.4-5.6,12.4-9.8,17.8c-7.3,9.8-17.9,16.7-29.8,19.3c-12.7,2.8-28,1-45.4-6.8
				c-25.2-11.4-54.6-35.3-87-76.5c18.4-1.9,51.1-7.8,75.4-26.3c20.6-15.7,39.2-21.4,54.6-20c6.6,0.5,13,2.5,18.8,5.8
				c5.7,3.3,10.7,7.7,14.6,13c6.3,8.6,10.5,18.6,12.2,29.2c5.2,1,10.4,2.3,15.4,4c-1.4-15.3-6.9-29.8-16-42.2
				c-5.2-6.8-11.7-12.6-19.1-16.8c-7.6-4.4-16.1-7-24.9-7.7c-18.8-1.6-40.9,5-64.7,23.2c-29.8,22.7-74.8,24-80.3,24
				c-4.1-0.3-7.6,2.8-7.8,6.9c-0.1,1.7,0.4,3.5,1.4,4.9c37.4,50,71.7,78.6,101.2,92c20.6,9.2,38.9,11.2,54.6,8
				c15.4-3.4,29.1-12.2,38.4-24.9c4.9-6.5,8.8-13.7,11.6-21.4l-1.2-0.6C294.9,115.4,290.8,113.8,286.5,112.6z"/>
		</g>
	</g>
	<g>
		<g>
			<path class="st0" d="M392.7,175.9c-59.6-99.3-107.2-97.5-152.2-95.7c-19.1,0.8-37.7,1.5-56-7c-3.8-1.3-8,0.7-9.3,4.5
				c-1.1,3.3,0.2,6.9,3.2,8.7c21.5,9.9,41.8,9.1,62.7,8.3c40.8-1.4,84-3.1,139.1,88.7c2.1,3.5,6.6,4.6,10.1,2.5
				C393.6,183.9,394.8,179.4,392.7,175.9z"/>
		</g>
	</g>
	<g>
		<g>
			<path class="st0" d="M161.6,285.8c-2.2-22.4-9.8-39.3-20.5-51.2c-10.6-11.6-25-19.1-40.7-20.9c-8.1-1-16.3-0.8-24.3,0.6
				c0,0.4,0,0.8,0,1.3c0.3,4.5,1.1,8.9,2.2,13.2c6.7-1.2,13.5-1.4,20.3-0.6c12.1,1.4,23.4,7,31.6,16c8.7,9.6,14.9,23.7,16.8,42.8
				c2.8,27.5-3.2,64.9-22.6,113.7c-10.8-15-32.3-40.4-60.5-52.2c-24-10-38.2-23.2-44.8-37.2c-2.9-5.9-4.4-12.4-4.5-19
				c0-6.6,1.4-13.1,4-19.2c4.3-9.8,10.8-18.4,19.1-25.2c-1.7-5.1-3-10.2-4-15.4c-12.5,8.8-22.4,20.9-28.6,35
				C1.7,275.3,0,283.8,0,292.3c0,8.8,2,17.5,5.8,25.4c8,17.1,24.8,32.9,52.4,44.5c36.7,15.4,61.1,57.4,61.4,57.8
				c2,3.5,6.5,4.7,10,2.7c1.4-0.8,2.5-2,3.1-3.5C157.2,361.9,164.8,317.9,161.6,285.8z"/>
		</g>
	</g>
	<g>
		<g>
			<path class="st0" d="M369.9,272.2c-2.3-3.3-6.9-4.1-10.2-1.8c-19.3,13.6-28.8,31.7-38.6,50.2c-19,36-39.2,74.4-146.2,76
				c-4,0.1-7.3,3.4-7.2,7.4s3.4,7.3,7.4,7.2c115.8-1.9,138-44,159-84c8.9-16.8,17.6-33.3,34-44.8
				C371.4,280.1,372.2,275.5,369.9,272.2z"/>
		</g>
	</g>
	<g>
		<g>
			<path class="st0" d="M425.1,209.4c-1.4-0.8-2.9-1.1-4.5-0.9l0.2,0.2c-62,7.4-103.9,22.8-130.3,41.8c-18.3,13.2-29.2,28-34,43.3
				c-4.8,15-4,31.2,2.2,45.6c3.2,7.5,7.5,14.5,12.7,20.8l1-0.7c3.7-2.5,7.2-5.4,10.4-8.5c-4.4-5.2-8-11-10.6-17.2
				c-4.9-11.3-5.5-23.9-1.7-35.6c4-12.4,13.1-24.7,28.6-36c22.4-16,57.8-29.6,109.7-37.2c-7.6,16.9-18.8,48-14.9,78.5
				c3.3,25.7-1,44.7-9.8,57.4c-3.8,5.5-8.7,10-14.4,13.4c-5.7,3.3-12,5.4-18.6,6.2c-10.6,1.2-21.4-0.2-31.4-4
				c-3.5,4-7.3,7.8-11.3,11.2c13.9,6.4,29.3,8.9,44.5,7.2c8.5-1,16.6-3.8,24-8c7.6-4.4,14.1-10.5,19.1-17.8
				c10.8-15.5,16-37.9,12.3-67.6c-5-39.6,19.4-82,19.5-82.1C429.9,215.9,428.7,211.4,425.1,209.4z"/>
		</g>
	</g>
</g>
</svg>
