<?xml version="1.0" encoding="utf-8"?>
<!-- Generator: Adobe Illustrator 23.0.5, SVG Export Plug-In . SVG Version: 6.00 Build 0)  -->
<svg version="1.1" id="Layer_1" xmlns="http://www.w3.org/2000/svg" xmlns:xlink="http://www.w3.org/1999/xlink" x="0px" y="0px"
	 viewBox="0 0 512 512" style="enable-background:new 0 0 512 512;" xml:space="preserve">
<style type="text/css">
	.st0{fill:#161616;}
</style>
<g>
	<path class="st0" d="M422.5,173.8c27.1,0,49.1-22,49.1-49.1V81.5c0,0,0,0,0-0.1s0-0.1,0-0.2c0-0.2,0-0.5-0.1-0.7c0-0.1,0-0.2,0-0.3
		c0-0.2-0.1-0.5-0.2-0.7c0-0.1,0-0.1,0-0.2c-0.1-0.3-0.2-0.6-0.3-0.9c0,0,0,0,0-0.1c-0.1-0.3-0.2-0.5-0.4-0.7c0,0,0-0.1-0.1-0.1
		L430.2,11c-4.1-6.7-11.7-11-19.7-11h-309c-8,0-15.6,4.3-19.7,11.1L41.4,77.6c0,0,0,0.1-0.1,0.1c-0.1,0.2-0.3,0.5-0.4,0.7
		c0,0,0,0,0,0.1c-0.1,0.3-0.2,0.6-0.3,0.9c0,0.1,0,0.1,0,0.2c-0.1,0.2-0.1,0.5-0.2,0.7c0,0.1,0,0.2,0,0.3c0,0.2,0,0.5-0.1,0.7
		c0,0.1,0,0.1,0,0.2c0,0,0,0,0,0.1v43.2c0,27.1,22,49.1,49.1,49.1c6.8,0,13.3-1.4,19.2-3.9v100.1H72.4l0,0H56.8
		c-9.3,0-16.8,7.6-16.8,16.8v31c0,9.3,7.6,16.8,16.8,16.8h1.3v112.6h-1.3c-9.3,0-16.8,7.6-16.8,16.8v31c0,9.3,7.6,16.8,16.8,16.8
		h398c9.3,0,16.8-7.6,16.8-16.8v-31c0-9.3-7.6-16.8-16.8-16.8h-1V334.8h1c9.3,0,16.8-7.6,16.8-16.8v-31c0-9.3-7.6-16.8-16.8-16.8
		h-15.5l0,0h-36V169.9C409.2,172.4,415.7,173.8,422.5,173.8z M316.7,270.1c-4.1,0-7.5,3.4-7.5,7.5s3.4,7.5,7.5,7.5h101.6l-44.4,36.4
		l0,0l-99.8,81.8c-10.6,8.7-26,8.7-36.6,0L93.4,285.1h195.3c4.1,0,7.5-3.4,7.5-7.5s-3.4-7.5-7.5-7.5H153.5V169.9
		c5.9,2.5,12.4,3.9,19.2,3.9c17.5,0,32.9-9.2,41.6-23.1c8.7,13.9,24.1,23.1,41.6,23.1s32.9-9.2,41.6-23.1
		c8.7,13.9,24.1,23.1,41.6,23.1c6.8,0,13.3-1.4,19.2-3.9V270h-41.6V270.1z M138.6,89h68.3v35.7c0,18.8-15.3,34.1-34.1,34.1
		s-34.1-15.3-34.1-34.1V89H138.6z M214.9,15l-7.2,59h-65.9l21.5-59H214.9z M282,15l7.2,59h-66.3l7.2-59H282z M348.7,15l21.5,59
		h-65.9l-7.2-59H348.7z M290.1,124.7c0,18.8-15.3,34.1-34.1,34.1s-34.1-15.3-34.1-34.1V89h68.3v35.7H290.1z M339.3,158.8
		c-18.8,0-34.1-15.3-34.1-34.1V89h68.3v35.7C373.4,143.5,358.1,158.8,339.3,158.8z M422.5,158.8c-18.8,0-34.1-15.3-34.1-34.1V89
		h68.3v35.7C456.7,143.5,441.3,158.8,422.5,158.8z M417.4,18.9L450.8,74h-64.7l-21.5-59h45.8C413.3,15,416,16.5,417.4,18.9z
		 M94.6,18.9c1.5-2.4,4.1-3.9,6.9-3.9h45.8l-21.5,59H61.2L94.6,18.9z M55.3,124.7V89h68.3v35.7c0,18.8-15.3,34.1-34.1,34.1
		S55.3,143.5,55.3,124.7z M123.7,159.9c2.8-2.7,5.3-5.8,7.4-9.2c2.1,3.3,4.6,6.4,7.4,9.2v110.2h-14.8L123.7,159.9L123.7,159.9z
		 M55,317.9v-31c0-1,0.8-1.8,1.8-1.8h12.9l42.3,34.7H65.7l0,0l0,0h-8.8C55.8,319.8,55,318.9,55,317.9z M438.8,447.3h-65.4
		c-4.1,0-7.5,3.4-7.5,7.5s3.4,7.5,7.5,7.5h81.4c1,0,1.8,0.8,1.8,1.8v31c0,1-0.8,1.8-1.8,1.8h-398c-1,0-1.8-0.8-1.8-1.8v-31
		c0-1,0.8-1.8,1.8-1.8h288.6c4.1,0,7.5-3.4,7.5-7.5s-3.4-7.5-7.5-7.5H73.2V334.8h57.1l97.7,80.1c8.1,6.6,17.9,9.9,27.8,9.9
		c9.9,0,19.7-3.3,27.8-9.9l97.7-80.1h57.4v112.5H438.8z M456.7,286.9v31c0,1-0.8,1.8-1.8,1.8h-55.2L442,285h12.9
		C455.8,285.1,456.7,285.9,456.7,286.9z M388.3,270.1h-14.8V159.9c2.8-2.7,5.3-5.8,7.4-9.2c2.1,3.3,4.6,6.4,7.4,9.2V270.1z"/>
</g>
</svg>
