<?xml version="1.0" encoding="iso-8859-1"?>
<!-- Generator: Adobe Illustrator 19.0.0, SVG Export Plug-In . SVG Version: 6.00 Build 0)  -->
<svg version="1.1" id="Capa_1" xmlns="http://www.w3.org/2000/svg" xmlns:xlink="http://www.w3.org/1999/xlink" x="0px" y="0px"
	 viewBox="0 0 513.6 513.6" style="enable-background:new 0 0 513.6 513.6;" xml:space="preserve">
<circle style="fill:#FFFFFF;" cx="374.4" cy="140" r="131.2"/>
<path style="fill:#193651;" d="M374.4,278.4c-76.8,0-139.2-62.4-139.2-139.2S297.6,0.8,374.4,0.8S513.6,63.2,513.6,140
	S451.2,278.4,374.4,278.4z M374.4,16.8c-68,0-123.2,55.2-123.2,123.2s55.2,123.2,123.2,123.2S497.6,208,497.6,140
	S442.4,16.8,374.4,16.8z"/>
<path style="fill:#FFBF5D;" d="M374.4,238.4c-54.4,0-99.2-44.8-99.2-99.2c0-54.4,44.8-98.4,99.2-98.4s99.2,44,99.2,99.2
	C473.6,194.4,428.8,238.4,374.4,238.4z"/>
<path style="fill:#193651;" d="M411.2,167.2c0-20-16-36.8-36.8-36.8c-9.6,0-17.6-8-17.6-17.6s8-17.6,17.6-17.6s17.6,8,17.6,17.6
	h18.4c0-16.8-11.2-31.2-27.2-35.2V64h-18.4v13.6c-15.2,4-27.2,18.4-27.2,35.2c0,20,16,36.8,36.8,36.8c9.6,0,17.6,8,17.6,17.6
	s-8,17.6-17.6,17.6s-17.6-8-17.6-17.6h-18.4c0,16.8,11.2,31.2,27.2,35.2V216H384v-13.6C399.2,197.6,411.2,184,411.2,167.2z"/>
<path style="fill:#27A2DE;" d="M229.6,282.4H98.4c-16,0-31.2,8-40.8,20.8L8.8,364l0,0h373.6l0,0l-72-52
	C288,292.8,259.2,282.4,229.6,282.4z"/>
<path style="fill:#193651;" d="M383.2,372H4.8L0,363.2l3.2-4L52,298.4c10.4-15.2,28-24,47.2-24h131.2c31.2,0,62.4,11.2,86.4,31.2
	l76,55.2l-3.2,11.2H383.2z M26.4,356h332.8l-52-37.6c-21.6-18.4-48.8-28-76.8-28h-132c-12.8,0-25.6,6.4-33.6,17.6L26.4,356z"/>
<rect x="175.2" y="282.4" style="fill:#193651;" width="16" height="81.6"/>
<path style="fill:#FFFFFF;" d="M494.4,468H25.6c-8.8,0-16.8-7.2-16.8-16.8V364l0,0h373.6l104.8,37.6c6.4,2.4,11.2,8,12,14.4
	l4.8,38.4C506.4,461.6,500.8,468,494.4,468z"/>
<path style="fill:#193651;" d="M494.4,476H25.6C12,476,0.8,464.8,0.8,451.2V356h8h376l106.4,38.4c9.6,3.2,16,11.2,16.8,21.6
	l4.8,38.4c0.8,5.6-0.8,11.2-4.8,15.2C504.8,473.6,500,476,494.4,476z M17.6,372v79.2c0,4.8,4,8.8,8.8,8.8h468c0.8,0,1.6-0.8,2.4-0.8
	c0,0,0.8-0.8,0.8-2.4l-4.8-38.4c-0.8-4-3.2-7.2-6.4-8l-104-37.6H17.6V372z"/>
<circle style="fill:#FFFFFF;" cx="405.6" cy="468" r="36.8"/>
<path style="fill:#193651;" d="M405.6,512.8c-24.8,0-44.8-20-44.8-44.8s20-44.8,44.8-44.8s44.8,20,44.8,44.8
	C450.4,492.8,430.4,512.8,405.6,512.8z M405.6,438.4c-16,0-28.8,12.8-28.8,28.8s12.8,28.8,28.8,28.8s28.8-12.8,28.8-28.8
	S421.6,438.4,405.6,438.4z"/>
<circle style="fill:#FFFFFF;" cx="89.6" cy="468" r="36.8"/>
<path style="fill:#193651;" d="M89.6,512.8c-24.8,0-44.8-20-44.8-44.8s20-44.8,44.8-44.8s44.8,20,44.8,44.8S114.4,512.8,89.6,512.8z
	 M89.6,438.4c-16,0-28.8,12.8-28.8,28.8s12.8,29.6,28.8,29.6s28.8-12.8,28.8-28.8S105.6,438.4,89.6,438.4z"/>
<rect x="180" y="405.6" style="fill:#193651;" width="16" height="16.8"/>
<rect x="233.6" y="405.6" style="fill:#193651;" width="16" height="16.8"/>
<g>
	<rect x="286.4" y="405.6" style="fill:#193651;" width="16" height="16.8"/>
	<path style="fill:#193651;" d="M126.4,184h-16v-16h16V184z M126.4,152h-16v-16h16V152z M126.4,120h-16v-16h16V120z M126.4,88h-16
		v-7.2c0-3.2,0-6.4,0.8-9.6l16,1.6c0,2.4-0.8,5.6-0.8,8V88z M130.4,59.2l-15.2-5.6c2.4-5.6,4.8-11.2,8-16l13.6,8.8
		C134.4,50.4,132,55.2,130.4,59.2z M145.6,36l-11.2-11.2c4-4,8.8-8,13.6-11.2l8.8,13.6C152.8,29.6,148.8,32,145.6,36z M169.6,20.8
		L164,5.6c5.6-1.6,11.2-3.2,17.6-4l1.6,16C178.4,17.6,174.4,19.2,169.6,20.8z M374.4,16.8h-16v-16h16V16.8z M342.4,16.8h-16v-16h16
		V16.8z M310.4,16.8h-16v-16h16V16.8z M278.4,16.8h-16v-16h16V16.8z M246.4,16.8h-16v-16h16V16.8z M214.4,16.8h-16v-16h16V16.8z"/>
	<polygon style="fill:#193651;" points="118.4,228.8 81.6,191.2 92.8,180 118.4,205.6 144.8,180 156,191.2 	"/>
</g>
<g>
</g>
<g>
</g>
<g>
</g>
<g>
</g>
<g>
</g>
<g>
</g>
<g>
</g>
<g>
</g>
<g>
</g>
<g>
</g>
<g>
</g>
<g>
</g>
<g>
</g>
<g>
</g>
<g>
</g>
</svg>
