<?xml version="1.0" encoding="utf-8"?>
<!-- Generator: Adobe Illustrator 16.0.0, SVG Export Plug-In . SVG Version: 6.00 Build 0)  -->
<!DOCTYPE svg PUBLIC "-//W3C//DTD SVG 1.1//EN" "http://www.w3.org/Graphics/SVG/1.1/DTD/svg11.dtd">
<svg version="1.1" id="Layer_1" xmlns="http://www.w3.org/2000/svg" xmlns:xlink="http://www.w3.org/1999/xlink" x="0px" y="0px"
	 width="16383px" height="16383px" viewBox="0 0 16383 16383" enable-background="new 0 0 16383 16383" xml:space="preserve">
<g>
	<path fill-rule="evenodd" clip-rule="evenodd" fill="#666768" d="M11206.475,8494.244c-49.982,15.654-102.398,4.988-155.438,4.988
		c-42.595,0-84.793,13.599-125.65,3.405c-0.237,1568.059-4.143,3136.136,6.485,4704.12
		c1.686,248.409-50.003,329.948-316.142,328.816c-2538.23-10.781-5076.535-9.244-7614.79-1.695
		c-230.48,0.684-311.762-47.919-311.141-297.771c8.459-3407.216,7.734-6814.463,0.997-10221.688
		c-0.443-224.217,61.051-288.887,286.716-288.226c2549.689,7.483,5099.417,7.915,7649.101-0.448
		c240.216-0.788,306.552,65.75,304.951,305.667c-9.913,1486.368-6.663,2972.823-6.441,4459.256
		c40.94-10.235,83.228,5.442,125.914,5.442c52.821,0,105.026-12.836,154.824,2.693c-1.959-1702.849-15.792-3405.907,9.13-5108.396
		c9.091-620.966-139.647-1111.58-696.601-1431.121h-205.97c-89.667,104.451-211.646,65.92-320.781,66.028
		c-2120.47,2.083-4240.946,2.083-6361.417,0c-109.134-0.107-231.113,38.417-320.783-66.028h-137.313
		c-358.144,145.339-577.493,429.473-755.223,755.224v13319.396c177.882,325.6,396.798,610.165,755.223,755.225h137.313
		c89.686-104.395,211.647-65.938,320.795-66.044c2120.463-2.074,4240.927-2.075,6361.389-0.001
		c109.149,0.106,231.11-38.346,320.797,66.045h205.97c557.216-319.119,704.121-809.859,696.574-1430.429
		C11191.191,12404.137,11204.926,10449.116,11206.475,8494.244z M2692.253,2043.264c42.597-478.966,314.03-756.995,793.437-757.523
		c2207.71-2.436,4415.424-2.25,6623.134-0.312c565.408,0.497,900.59,413.403,821.723,971.885
		c-29.934,211.986-172.12,146.531-279.817,146.887c-1281.144,4.224-2562.309,2.722-3843.467,2.722
		c-1258.281-0.043-2516.73-11.123-3774.723,7.91C2726.073,2419.47,2668.275,2312.877,2692.253,2043.264z M9623.722,15475.175
		c-2021.49-41.32-4044.443-10.66-6066.779-11.524c-581.879-0.248-853.317-272.107-861.624-856.768
		c-10.713-753.892-10.713-753.892,736.665-753.892c1131.136,0.002,2262.273,0,3393.408,0
		c1256.817-0.028,2513.676,5.023,3770.42-4.556c233.928-1.784,335.105,28.667,339.564,307.749
		C10951.514,15166.6,10855.735,15500.355,9623.722,15475.175z"/>
	<path fill-rule="evenodd" clip-rule="evenodd" fill="#757778" d="M3630.221,1025.314c-109.134-0.107-231.113,38.417-320.783-66.028
		c2334.327,0,4668.655,0,7002.981,0c-89.667,104.451-211.646,65.92-320.781,66.028"/>
	<path fill-rule="evenodd" clip-rule="evenodd" fill="#757778" d="M3309.438,15789.13c89.686-104.395,211.647-65.938,320.795-66.044
		c2120.463-2.074,4240.927-2.075,6361.389-0.001c109.149,0.106,231.11-38.346,320.797,66.045
		C7978.093,15789.13,5643.765,15789.13,3309.438,15789.13z"/>
	<path fill-rule="evenodd" clip-rule="evenodd" fill="#F38030" d="M6779.639,8233.209
		c555.743,509.748,1051.707,963.644,1546.226,1419.112c98.953,91.137,245.699,190.94,117.208,337.427
		c-129.003,147.064-246.575,17.37-346.987-74.18c-607.732-554.087-1210.197-1114.032-1823.178-1662.229
		c-182.15-162.899-168.674-285.48-7.361-452.005c540.409-557.868,1069.869-1126.33,1606.222-1688.157
		c97.963-102.618,206.848-270.984,362.21-110.819c132.917,137.027-12.811,246.848-104.841,344.319
		c-407.755,431.869-817.896,861.491-1224.302,1294.615c-42.131,44.898-124.94,93.985-71.521,167.711
		c24.224,33.432,7083.437,41.661,7173.733,51.03c99.34,10.311,175.72,59.383,175.973,171.226
		c0.258,112.17-79.118,167.218-175.592,172.84C13803.056,8216.014,8208.133,8233.209,6779.639,8233.209z"/>
	<path fill-rule="evenodd" clip-rule="evenodd" fill="#606263" d="M6808.131,14465.656c284.351-0.006,568.708-0.934,853.053,0.456
		c111.742,0.546,238.832-22.053,235.481,158.416c-2.887,155.42-109.671,145.411-213.358,145.435
		c-580.078,0.123-1160.156,0.345-1740.231-0.23c-101.357-0.101-211.816,16.467-218.289-140.171
		c-7.38-178.627,115.355-163.679,230.289-163.8C6239.428,14465.463,6523.779,14465.663,6808.131,14465.656z"/>
</g>
</svg>
