<?xml version="1.0" encoding="utf-8"?>
<!-- Svg Vector Icons : http://www.onlinewebfonts.com/icon -->
<!DOCTYPE svg PUBLIC "-//W3C//DTD SVG 1.1//EN" "http://www.w3.org/Graphics/SVG/1.1/DTD/svg11.dtd">
<svg version="1.1" xmlns="http://www.w3.org/2000/svg" xmlns:xlink="http://www.w3.org/1999/xlink" x="0px" y="0px" viewBox="0 0 1000 1000" enable-background="new 0 0 1000 1000" xml:space="preserve">
<metadata> Svg Vector Icons : http://www.onlinewebfonts.com/icon </metadata>
<g><g transform="translate(0.000000,511.000000) scale(0.100000,-0.100000)"><path d="M5915.9,4980.4c-24.2-28.2-342.3-2182.4-342.3-2315.3c0-34.2,10.1-72.5,24.2-86.6c34.2-34.2,106.7-30.2,136.9,6c22.2,28.2,342.3,2184.4,342.3,2315.3c0,34.2-10.1,72.5-24.2,86.6C6018.6,5020.7,5946.1,5016.6,5915.9,4980.4z"/><path d="M7923.1,3315.4c-28.2-26.2-350.3-356.4-718.7-736.9C6636.6,1990.7,6538,1880,6544,1835.7c8-68.5,60.4-100.7,122.8-76.5c48.3,20.1,1354.9,1359,1415.3,1449.6c30.2,46.3,30.2,54.4,0,100.7C8041.9,3371.8,7987.6,3373.8,7923.1,3315.4z"/><path d="M3411.4,3087.9c-102.7-36.2-803.3-726.8-859.7-845.6c-54.4-116.8-48.3-217.4,32.2-497.3c124.8-434.9,159.1-654.3,159.1-992.5c-2-354.3-34.2-505.4-177.2-805.3c-100.7-211.4-199.3-366.4-388.6-597.9l-132.9-161.1l887.9-887.8l887.9-885.8l72.5,58.4c406.7,328.2,606,449,906,549.6c432.9,142.9,865.7,124.8,1568.4-68.4c281.9-76.5,398.6-86.6,509.3-40.3c42.3,18.1,213.4,171.1,422.8,376.5c406.7,402.7,461,487.2,442.9,672.4c-6,60.4-30.2,138.9-52.4,175.2c-22.1,34.2-912,934.2-1979,1999.2C4025.4,2818.2,3761.7,3073.8,3689.2,3094C3582.5,3124.2,3508,3122.2,3411.4,3087.9z M3657,2888.6c30.2-16.1,918.1-893.9,1973-1948.8C7496.3-930.6,7546.6-980.9,7546.6-1055.4c0-42.3-12.1-100.7-28.2-130.9c-16.1-30.2-183.2-205.4-370.4-390.6c-400.6-396.6-352.3-380.5-761-267.8c-1026.8,283.9-1687.1,187.2-2387.8-344.3l-167.1-126.8l-759,757l-757,757l94.6,122.8c418.8,537.5,587.9,1075.1,527.5,1667c-24.2,237.6-94.6,575.8-175.2,857.6c-84.6,293.9-100.7,261.7,310,674.5c195.3,197.3,374.5,368.4,396.6,376.5C3530.1,2922.9,3596.6,2920.8,3657,2888.6z"/><path d="M8416.4,984.1c-547.6-76.5-1014.7-143-1042.9-149c-66.4-18.1-86.6-104.7-34.2-155c38.2-40.3,46.3-38.2,1141.5,110.7c606,82.6,1115.3,161.1,1131.4,173.2c34.2,30.2,36.3,104.7,4,136.9C9578,1139.1,9465.3,1129,8416.4,984.1z"/><path d="M1152.5-1697.6c-666.4-672.5-692.6-706.7-763-974.4c-38.2-151-38.2-390.6,0-541.6c56.4-215.4,143-344.3,402.7-606c211.4-213.4,263.8-255.7,412.7-328.2c213.4-102.7,394.6-134.9,610-104.7c302,42.3,463.1,136.9,789.2,465.1c120.8,120.8,229.5,221.5,239.6,221.5c30.2,0,467.1-255.7,716.7-416.7c298-195.3,646.3-453,877.8-652.3l183.2-155l219.4,219.4l219.4,219.5L3419.4-2710.3L1778.6-1069.5L1152.5-1697.6z M4695.8-4433.6l-82.6-82.5l-173.1,140.9c-434.9,354.3-1179.8,839.5-1568.3,1022.7l-76.5,36.3l-306-302c-340.2-334.2-432.9-392.6-676.5-432.8c-177.2-30.2-340.3-4-525.5,82.5c-187.3,88.6-551.6,455-648.3,654.3c-66.4,134.9-68.5,149-68.5,372.5c0,372.5,2,376.5,662.4,1042.9l545.6,547.6l1499.9-1499.9l1499.9-1499.9L4695.8-4433.6z"/></g></g>
</svg>