<?xml version="1.0" encoding="utf-8"?>
<!-- Svg Vector Icons : http://www.onlinewebfonts.com/icon -->
<!DOCTYPE svg PUBLIC "-//W3C//DTD SVG 1.1//EN" "http://www.w3.org/Graphics/SVG/1.1/DTD/svg11.dtd">
<svg version="1.1" xmlns="http://www.w3.org/2000/svg" xmlns:xlink="http://www.w3.org/1999/xlink" x="0px" y="0px" viewBox="0 0 1000 1000" enable-background="new 0 0 1000 1000" xml:space="preserve">
<metadata> Svg Vector Icons : http://www.onlinewebfonts.com/icon </metadata>
<g><path d="M904.7,116.5H95.2c-47,0-85.2,38.1-85.2,85.2v596.5c0,47,38.1,85.3,85.2,85.3h809.6c47,0,85.3-38.2,85.3-85.3V201.8C989.9,154.7,951.7,116.5,904.7,116.5z M947.4,798.3c0,23.5-19.1,42.6-42.6,42.6H95.2c-23.5,0-42.5-19.1-42.5-42.6V201.8c0-23.5,19-42.5,42.5-42.5h809.6c23.5,0,42.6,19,42.6,42.5V798.3z M274.7,574.8L119.8,729.7c-9,9.1-9,23.8,0,32.9c9.1,9.1,23.9,9.1,33,0l154.9-154.8c9.1-9.1,9.1-23.8,0-32.9C298.6,565.7,283.8,565.7,274.7,574.8z M851.4,236.6L532.6,556.5c-18.2,18.2-47.6,18.2-65.9,0L160,249.8v0.1l-7.8-7.8c-9.1-9.1-23.8-9.1-32.9,0c-9.1,9.1-9.1,23.9,0,33.1l79.1,79.2c0.1,0,0.2,0.1,0.2,0.1l235,235.1c36.4,36.3,95.5,36.3,132,0l319.9-318.6c9.5-9.5,9.5-24.7,0-34.3C876.2,227.1,860.8,227.1,851.4,236.6z M718.6,567c-9.6-9.5-25-9.5-34.5,0c-9.6,9.5-9.6,24.9,0,34.4l160.8,161c9.5,9.5,24.9,9.5,34.5,0c9.5-9.6,9.5-25,0-34.5L718.6,567z"/></g>
</svg>