<?xml version="1.0" encoding="utf-8"?>
<!-- Svg Vector Icons : http://www.onlinewebfonts.com/icon -->
<!DOCTYPE svg PUBLIC "-//W3C//DTD SVG 1.1//EN" "http://www.w3.org/Graphics/SVG/1.1/DTD/svg11.dtd">
<svg version="1.1" xmlns="http://www.w3.org/2000/svg" xmlns:xlink="http://www.w3.org/1999/xlink" x="0px" y="0px" viewBox="0 0 1000 1000" enable-background="new 0 0 1000 1000" xml:space="preserve">
<metadata> Svg Vector Icons : http://www.onlinewebfonts.com/icon </metadata>
<g><path d="M500,10C229.4,10,10,229.4,10,500s219.4,490,490,490s490-219.4,490-490S770.6,10,500,10z M500,942C255.9,942,58,744.1,58,500S255.9,58,500,58s442,197.9,442,442S744.1,942,500,942z M767,519l0.2-9.1h163.6c0.2-3.3,0.4-6.6,0.4-9.9s-0.2-6.6-0.4-9.9H767.2l-0.2-9c-1.3-70.7-9.8-138.1-25.3-200.5l-2-8.2l8-2.7c39.1-13.4,68.7-27.8,88.5-38.8c-4.3-5.3-8.7-10.5-13.2-15.6c-23.7,13-50.4,24.6-79.6,34.7l-9,3.1l-2.8-9.1c-16.5-54.2-37.8-101.4-63.5-140.5c-11.5-4.9-23.3-9.3-35.3-13.2c31.9,40.7,58.9,95.3,78.8,159.9l2.8,9.1l-9.1,2.5c-56.8,15.7-119.3,24.3-185.9,25.8l-9.4,0.2V69.3c-3.3-0.2-6.5-0.5-9.9-0.5s-6.6,0.2-9.9,0.5v218.4l-9.4-0.2c-66.4-1.5-128.9-10.2-185.8-26l-9.2-2.5l2.8-9.1c20-64.6,46.9-119.1,78.8-159.7c-12,3.9-23.8,8.2-35.3,13.2c-25.7,39-47,86.1-63.5,140.3l-2.8,9.2l-9-3.2c-29.1-10.1-55.8-21.7-79.5-34.7c-4.5,5.2-9,10.4-13.3,15.8c19.8,11.1,49.4,25.5,88.5,38.8l8,2.7l-2,8.2c-15.5,62.3-24,129.8-25.4,200.5l-0.2,9H69.2c-0.2,3.3-0.4,6.6-0.4,9.9s0.2,6.7,0.4,9.9h163.5l0.2,9.1c1.3,71.3,10,139.4,25.7,202.3l2.1,8.2l-8,2.7c-38.7,13.2-68.1,27.4-87.8,38.4c4.3,5.3,8.7,10.5,13.2,15.6c23.5-12.8,50.1-24.3,79-34.3l9-3.1l2.8,9.1c16.4,53.5,37.6,100.2,63,138.8c11.5,4.9,23.3,9.3,35.3,13.2c-31.6-40.3-58.4-94.2-78.3-158.1l-2.9-9.1l9.2-2.5c56.6-15.6,119-24.2,185.3-25.6l9.4-0.2v216.5c3.3,0.2,6.6,0.4,9.9,0.4s6.6-0.2,9.9-0.4V714.2l9.4,0.2c66.1,1.5,128.4,10.1,185.2,25.8l9.2,2.5l-2.8,9.1c-19.9,63.8-46.7,117.7-78.2,158c12-3.9,23.8-8.3,35.3-13.2c25.4-38.6,46.6-85.2,63-138.6l2.8-9.1l9,3.1c28.8,10,55.3,21.5,78.9,34.2c4.6-5.2,9.1-10.4,13.4-15.7c-19.8-11-49.1-25.2-87.8-38.4l-8-2.7l2.1-8.2C757,658.4,765.7,590.3,767,519z M490.1,694.4l-9,0.2c-68.6,1.4-132.9,10.2-191.2,26.2l-9.1,2.5l-2.3-9.1c-15.7-61.6-24.3-127.2-25.7-194.9l-0.2-9.4h237.5V694.4z M490.1,490.1H252.6l0.2-9.4c1.4-67,9.9-132,25.2-193.1l2.3-9.1l9.1,2.5c58.4,16.1,122.9,25,191.7,26.4l9,0.2L490.1,490.1L490.1,490.1z M509.9,307.5l9-0.2c68.7-1.4,133.2-10.2,191.7-26.4l9.1-2.5l2.3,9.1c15.3,61.1,23.8,126,25.2,193.1l0.2,9.4H509.9L509.9,307.5L509.9,307.5z M721.5,714.2l-2.3,9.1l-9.1-2.5c-58.3-16-122.6-24.8-191.2-26.2l-9-0.2V509.9h237.5l-0.2,9.4C745.8,587,737.2,652.6,721.5,714.2z"/></g>
</svg>