<?xml version="1.0" encoding="utf-8"?>
<!-- Svg Vector Icons : http://www.onlinewebfonts.com/icon -->
<!DOCTYPE svg PUBLIC "-//W3C//DTD SVG 1.1//EN" "http://www.w3.org/Graphics/SVG/1.1/DTD/svg11.dtd">
<svg version="1.1" xmlns="http://www.w3.org/2000/svg" xmlns:xlink="http://www.w3.org/1999/xlink" x="0px" y="0px" viewBox="0 0 1000 1000" enable-background="new 0 0 1000 1000" xml:space="preserve">
<metadata> Svg Vector Icons : http://www.onlinewebfonts.com/icon </metadata>
<g><g transform="translate(0.000000,511.000000) scale(0.100000,-0.100000)"><path d="M4602.5,4995c-1078.4-145.3-2009.3-851.4-2442.9-1857.1c-190.7-445-279.3-987.6-229.3-1416.7c109-946.7,919.5-2838,2263.5-5269.5c547.2-989.9,674.3-1203.3,744.7-1226c136.2-47.7,165.8-15.9,474.5,524.5c1101.1,1923,2084.2,3959.5,2433.8,5042.5c242.9,753.8,288.3,1173.8,183.9,1725.5c-233.8,1221.5-1216.9,2206.8-2445.2,2445.2C5358.5,5008.6,4822.7,5024.5,4602.5,4995z M5540.2,4602.2c831-181.6,1518.9-710.6,1898-1459.9c193-386,270.2-719.7,270.2-1176c0-317.8-4.6-361-81.7-649.3c-208.9-794.6-760.6-2070.6-1527.9-3546.3c-470-899.1-1071.6-1991.1-1098.9-1991.1c-40.9,0-989.9,1757.3-1453,2690.4C2922.4-267.7,2561.4,608.7,2373,1319.3c-77.2,281.5-81.7,331.5-84,635.7c0,238.4,11.4,381.4,40.9,522.2c115.8,533.5,363.3,989.9,749.2,1375.8c445,442.7,944.5,687.9,1614.2,790.1C4831.8,4663.5,5379,4636.3,5540.2,4602.2z"/><path d="M4716,3544.2c-329.2-61.3-615.3-213.4-865-463.1c-204.3-204.3-324.7-397.3-413.2-667.5c-50-152.1-59-213.4-56.8-481.3c0-270.2,6.8-326.9,59-488.1c86.3-261.1,206.6-451.8,413.2-658.4c206.6-206.6,397.3-326.9,658.4-413.2c161.2-52.2,218-59,488.1-59c270.2,0,326.9,6.8,488.1,59c261.1,86.3,451.8,206.6,658.4,413.2c206.6,206.6,326.9,397.3,413.2,658.4c52.2,161.2,59,218,59,488.1c0,270.2-6.8,326.9-59,488.1c-86.3,261.1-206.6,451.8-413.2,658.4c-315.6,317.9-644.8,460.9-1078.4,476.8C4936.2,3560.1,4779.6,3555.6,4716,3544.2z M5240.5,3178.7c222.5-38.6,483.6-179.4,653.9-351.9c494.9-492.7,494.9-1296.4,2.3-1791.3c-494.9-494.9-1294.1-494.9-1791.3,2.3c-499.5,499.5-499.5,1289.6,0,1789C4409.5,3128.8,4815.9,3255.9,5240.5,3178.7z"/><path d="M4852.2,2263.8c-229.3-99.9-283.8-404.1-104.4-583.5c254.3-256.5,672-27.2,606.2,331.5C5313.1,2225.2,5056.6,2354.6,4852.2,2263.8z"/></g></g>
</svg>