<?xml version="1.0" ?><svg viewBox="0 0 64 64" xmlns="http://www.w3.org/2000/svg"><g id="outline"><path d="M44,18H18a1,1,0,0,0-1,1V45c0,.009,0,.016,0,.025a1,1,0,0,0,.045.221.479.479,0,0,0,.13.295,1.052,1.052,0,0,0,.136.182c.006.006.008.014.015.02a1.031,1.031,0,0,0,.158.1,1.015,1.015,0,0,0,.141.085A.99.99,0,0,0,18,46H44a1,1,0,0,0,.349-.07,1.033,1.033,0,0,0,.1-.045,1.236,1.236,0,0,0,.285-.21.971.971,0,0,0,.178-.265c0-.009.011-.015.015-.024l0,0a1.015,1.015,0,0,0,.069-.346c0-.013.007-.024.007-.037V19A1,1,0,0,0,44,18Zm-1,2v2H39a1,1,0,0,0,0,2h4v2H41a1,1,0,0,0,0,2h2V42.586l-6.293-6.293a1,1,0,0,0-1.372-.04l-3.256,2.9-4.336-4.817a1.03,1.03,0,0,0-1.486,0L19,42.394V34h2a1,1,0,0,0,0-2H19V30h4a1,1,0,0,0,0-2H19V20ZM20.245,44,27,36.495l3.584,3.982L26.62,44Zm9.385,0,3.039-2.7h0l3.289-2.924L41.586,44Z"/><path d="M59,12H56V9a1,1,0,0,0-1-1H9A1,1,0,0,0,8,9V19H5a1,1,0,0,0,0,2H8v4H5a1,1,0,0,0,0,2H8v4H5a1,1,0,0,0,0,2H8v4H5a1,1,0,0,0,0,2H8v4H5a1,1,0,0,0,0,2H8V55a1,1,0,0,0,1,1H55a1,1,0,0,0,1-1V38h3a1,1,0,0,0,1-1V13A1,1,0,0,0,59,12ZM58,24H56V20h2Zm-2,2h2v4H56Zm2-12v4H56V14ZM54,54H10V45h3a1,1,0,0,0,0-2H10V39h3a1,1,0,0,0,0-2H10V33h3a1,1,0,0,0,0-2H10V27h3a1,1,0,0,0,0-2H10V21h3a1,1,0,0,0,0-2H10V10H54V54Zm4-18H56V32h2Z"/><path d="M32,34a3.5,3.5,0,1,0-3.5-3.5A3.5,3.5,0,0,0,32,34Zm0-5a1.5,1.5,0,1,1-1.5,1.5A1.5,1.5,0,0,1,32,29Z"/></g></svg>