<?xml version="1.0" encoding="utf-8"?>
<!-- Generator: Adobe Illustrator 23.0.2, SVG Export Plug-In . SVG Version: 6.00 Build 0)  -->
<svg version="1.1" id="Layer_1" xmlns="http://www.w3.org/2000/svg" xmlns:xlink="http://www.w3.org/1999/xlink" x="0px" y="0px"
	 viewBox="0 0 3500 1500" style="enable-background:new 0 0 3500 1500;" xml:space="preserve">
<style type="text/css">
	.st0{fill-rule:evenodd;clip-rule:evenodd;fill:#F5F6F7;}
	.st1{fill:#FF8F5C;}
	.st2{fill:#2FC3B6;}
	.st3{fill:#E1EBF0;}
	.st4{fill:#F5F6F7;}
	.st5{fill-rule:evenodd;clip-rule:evenodd;fill:none;stroke:#000000;stroke-width:4;stroke-miterlimit:10;}
	.st6{fill:#FFFFFF;stroke:#000000;stroke-width:4;stroke-miterlimit:10;}
	.st7{fill:#FF8F5C;stroke:#FF8F5C;stroke-width:4;stroke-miterlimit:10;}
	.st8{fill:none;stroke:#F5F6F7;stroke-width:4;stroke-miterlimit:10;}
</style>
<g>
	<g>
		<g>
			<path class="st0" d="M615.5,1040.7c22.7,0,45.5,0,69.9,0c-2.9-7.7-5.5-14.5-8.4-22.2c-2.9,2.5-5.1,4.3-7.7,6.6
				c-3.2-4.1-6.3-8.1-9.8-12.6c-4.6,3.4-8.8,6.4-13.3,9.7c-3.4-8.4-7.3-16.2-9.6-24.4c-2.1-7.5,8.4-17.3,20-17.7
				c8.3-0.3,13.4-3.9,18.2-9.7c7.6-9.2,13.5-10.5,25.1-6.3c-1.3,9.8-1.3,9.8,12,17c-4.5-16.4-8.8-31.9-13.6-49.3
				c-6.9,10.2-12.8,18.9-19.5,28.8c-4.4-11.8-8.4-22.3-12.8-34.1c-11.7,5.6-22.6,10.9-35,16.9c2.5-14.3,4.9-27.3,7.2-40.7
				c-5.1-1.9-9.7-3.6-14.2-5.2c8.3-23.2,28.8-33,52.7-24.5c7.6,2.7,11.3,2.3,15.7-4.8c15.7-24.9,34.6-26,63-12.5
				c-3.9,3.4-7.5,6.6-11.9,10.5c8.7,10.3,17.3,20.4,27.8,32.8c-13.9,1.6-25.6,3-37.9,4.4c1.1,11.5,2.2,22.8,3.5,35.7
				c-7.2-3.5-12.9-6.3-20.8-10.2c4,14.3,7.4,26.7,11,39.1c1.3,4.8,2.8,9.5,4.3,14.2c1.6,5,1.2,11.5,10.3,9.5
				c8.3-1.9,14.3-4.3,13.8-14.4c-0.7-15.1-1.2-30.3-1.4-45.4c-0.1-7.2,0.9-14.3,1.5-22.5c3.8,0,7.1-0.2,10.3,0
				c8.2,0.6,15.4,0.5,14.4-11.2c-0.1-1.3,4.5-4.2,7-4.3c9.5-0.5,19.1-0.5,28.7-0.2c8.1,0.3,13-3.4,16-10.6
				c12.5-30.5,25.3-60.8,37.6-91.4c6.5-16.1,4.4-30.4-9.5-42.9c-14.6-13.1-20.6-30.1-17.8-49.9c1-7.1,1.2-14.4,2.3-21.6
				c2.4-16.7,2.5-16.7,15.6-30.4c0,8.8,0.7,17.6-0.1,26.3c-2.2,22.2,3.8,41.7,17.8,58.8c7.3,8.8,17.5,9.9,27.9,8.8
				c1.9-0.2,4.3-3.4,4.9-5.7c1.9-6.3,2.6-12.9,4.6-19.1c2.2-6.9,6.1-12.7,14.9-11.3c8.4,1.3,12.8,6.3,12.4,14.7
				c-0.2,4.5-1,9.1-2.1,13.5c-1.9,7.8,0.4,12.6,8.7,14.6c17.8,4.4,23,10.7,24.9,29.3c0.6,5.6,1.3,11.2,1.2,16.7
				c-0.3,12.5,4.2,23.1,11.3,33c1.8,2.5,3.4,5.2,3.8,9c-2.4-1.3-4.9-2.6-7.3-3.9c-5.5,4.7,5.4,33.6,16.7,44.3c-4-1.2-8-2.4-12.2-3.8
				c-2.2,3.5-3.7,7.4-6.5,10c-2.1,2-5.8,3.5-8.6,3.3c-1.6-0.1-3.6-4-4.1-6.5c-1.2-5.1-0.9-10.6-2.4-15.6c-2.1-6.6-5.5-12.9-8.3-19.3
				c-1,0.4-2,0.8-3,1.2c-0.2,1.2-0.7,2.4-0.7,3.6c0.7,30.6,1.4,61.2,2.3,91.8c0.3,10.5,0.8,21,1.9,31.5c0.5,5.2-0.1,12.3,9.9,12.4
				c0-30.7,0-60.8,0-91.5c9.5,0,17.7,0.4,25.9-0.1c9.3-0.6,11.9,3.7,11.8,12.4c-0.4,21.1-0.2,42.2,0,63.3c0,3.7,1.3,7.5,2,11.2
				c1.1-0.1,2.2-0.1,3.3-0.2c0.4-3.7,1.2-7.4,1.2-11.1c0.1-17.8-0.5-35.6,0.2-53.4c0.6-14.5,1.1-28.3-12.6-37.8
				c-0.4-0.3-0.2-1.3-0.3-1.9c11.8,8.5,24.6,3.5,38.3,3.8c-2.1-4-3.6-7-6.1-11.8c7.7,5,13.6,8.8,20.8,13.4c0.3-3.6,0.7-5.7,0.7-7.8
				c0-38.3,0.1-76.6,0-114.9c0-18.8-0.2-18.8,18.3-21.9c-0.2-6.5-0.3-13.2,8.2-15.9c1.7-0.5,2.3-5.7,2.8-8.8
				c0.9-6.1,1.4-12.2,3.9-18.2c0.3,3.4,0.8,6.7,0.8,10.1c0,8.2,2.4,14.3,7.5,21.7c6.7,9.8,8.8,24.1,9.1,36.6
				c1,40.9,0.4,81.8,0.4,122.7c0,2.2,0,4.5,0,7.5c28.6,0,56.5,0,84.9,0c1.2,4.7,2.3,8.7,3.6,13.7c12.4,0,24.8,0,38.1,0
				c0,9.7,0,18.5,0,27.6c11.7,0,22.4,0,34.4,0c0-13.5,0-26.8,0-41.2c11.7,0,22.2-0.2,32.6,0.1c6.2,0.2,9.2-2.1,9.1-8.6
				c-0.1-9.4-1.6-19.2,7-26.5c1.4-1.2,0.7-5,0.7-7.6c0-22.4,0-44.8,0-68.1c13,0.2,15-8.8,14.3-19.3c13.5,0,26.2,0,39.4,0
				c-0.6,9.2,0.9,16.3,10.9,18.8c1.6,0.4,2.9,5.4,2.9,8.2c0.3,18.2,0.1,36.3,0.1,54.5c0,3-0.8,6.6,0.6,8.8
				c11.3,17.9,6.6,37.8,7.5,56.9c0.1,1.3,0.1,2.6,0.3,3.9c0.1,0.6,0.6,1.1,2.3,4c6.5-7.4,12.5-14.2,19.1-21.6
				c4.1,7.6,10.6,10.7,17,6.1c5.3-3.8,11.5-10.4,11.9-16.1c1.4-20.9,1.1-42,0.5-63c-0.3-12.4,1.5-16.6,11.9-17.2
				c0-14.7,0.1-29.4,0-44.2c-0.2-22.1-0.7-44.2-0.9-66.2c0-1.9,0-4.6,1.1-5.7c15.3-14.3,7.8-32.9,9.2-49.7c1-11.5-0.3-23.1,0.2-34.6
				c0.2-3.9,1.7-9.9,4.5-11.2c9.9-4.8,9.2-13.3,9.8-21.7c2.7-35.1,5.4-70.2,8.2-105.3c0.1-1.2,0.8-2.3,3.3-3.5
				c1.5,13.7,3.2,27.4,4.5,41.1c2.2,23.9,4.1,47.8,6.3,71.7c0.3,2.9,0.8,6.3,2.5,8.4c15.8,18.7,10.2,41.4,12,62.6
				c0.6,7.1-0.4,14.4-1,21.7c-0.7,9.5,1.2,16.2,12.3,19c7.8,1.9,9.7,9.6,9.7,17.6c-0.2,29.4,0.2,58.8-0.3,88.2
				c-0.1,8.6,1,14.4,11.8,13.1c0,44.4,0,88.2,0,133.1c14.9,0,29.2,0,44.4,0c0-17.8,0-36.1,0-55.8c18.9,0,37-1.2,54.8,0.6
				c7.4,0.7,14.3,7.1,14,17.6c-0.6,16.7-0.2,33.5-0.2,50.6c5.4,0,8.6,0,12.6,0c0-26,0-51.7,0-77.3c0-12.2,0.5-24.5-0.1-36.6
				c-0.4-9,0.4-15.9,10-14.9c4.2-9.2,7.9-17.3,11.6-25.4c1.1,0.2,2.2,0.4,3.3,0.6c0.3,5.9,1,11.8,0.7,17.6c-0.3,5.9,3,7.2,7.7,7.9
				c4.8,0.7,6.9-0.9,8.3-5.8c2.2-7.8,5.8-15.2,8.9-23c7.1,9.3-5.3,28.2,16.5,29.9c0,16.5,0,32.9,0,50.4c20.6,0,40.2,0,61.3,0
				c0,10.8,0,20.4,0,31.1c9.1-3.2,14.3-6.2,8.9-15.3c-1.3-2.2-2.3-6.8-1.2-7.8c8.7-8,3.6-13.6-3.2-19.2c8-7.1,10.6-14.2,0.4-21.7
				c7.8-7.3,9.7-14.7,0.1-22c7.6-7.4,9.6-14.7,0-21.8c6.8-7.5,10.6-14.8-0.7-22.6c10.1-6.8,10.4-14,1.5-20.6
				c7.5-13.1,7.5-13.1-0.3-22.5c4.4-6.6,13.3-14.2-0.2-21.1c4.9-8,11.5-15.4-0.4-22.4c6.8-7.9,9.6-15.4-0.2-22.7
				c8.8-7.1,9.8-14,0.7-21.2c6-7.6,10.6-15.3,0.1-21.8c3.9-5.8,7.4-11.1,11.3-17c-4.4-2-7.6-3.4-9.8-4.5c0.3-4.8,0.5-8.9,0.8-13
				c3.7-3.8,6.1-7.9,0.4-14.3c-6.7-7.5-1.5-11.7,5.1-13.7c12-3.6,24.3-6,36.5-9c3.1-0.8,6.2-1.6,12.3-3.3
				c-26.7-14.2-51.1-27.2-75.4-40.1c0.2-0.7,0.4-1.5,0.6-2.2c16.2,0,32.5,0,49.5,0c0.7-6,1.3-11.1,1.9-16.5c46.4,0,92.5,0,139.3,0
				c0.9,4.7,1.8,9.4,2.9,15.3c17.3,0,34.5,0,51.8,0c0.2,0.7,0.3,1.5,0.5,2.2c-24.6,13.4-49.3,26.8-76.3,41.5
				c13.3,3.2,24.1,5.8,35,8.5c3.8,0.9,7.7,1.7,11.4,3.1c7.2,2.6,11.4,6.2,6.4,14.7c-4,6.8-0.8,20.1,5.2,25.2c-4.1,2-8.1,4-12.7,6.3
				c1.6,2.8,2.9,5.4,4.5,7.8c1.6,2.5,3.4,4.9,5.4,7.8c-5.6,6.8-11.9,14,1.1,20.4c-6.4,8.1-11.4,15.8-0.9,23c-9,10.9-9,11.2-0.2,22.6
				c-5.5,6.9-11.3,14.2,0.7,21.3c-5.6,7.2-11.7,14.3-0.3,21.9c-7.3,7.5-9,15.1,0.2,22.8c-7.9,6.9-8.8,14.1,0,22
				c-9.4,6.5-9.9,13.6-0.1,20.6c-4.5,7.2-14.3,14.3-0.1,21.9c-4.8,7.5-12.6,15.1,0.9,22.1c-10.4,7.9-10.3,15.6,0.1,22.8
				c-9.1,7-10.8,13.7-1.8,21.5c2.2,1.9,2.5,6.5,2.7,10c0.4,8.5,0.1,17,0.1,26c6.8,0,12.6,0,19.7,0c0-37.7,0-75.8,0-114.5
				c7.3,0,13.4,0,20.7,0c0,9.2,0,18.6,0,29c13.8,0.6,26.5,1.2,39.8,1.9c0.8,11,1.5,22,2.3,33c1.3,0,2.6,0,3.9,0
				c7.7-10.6,2.4-23.7,5.2-35.8c5.8,0,11.6,0,17.5,0c3.7,16,15.3,26,35.1,29.1c0.6-6.7,1.6-13.4,1.8-20c0.3-9.9,0.3-19.8,0-29.7
				c-0.2-8-0.3-15.4,12.1-12.9c1.3-19.3,2.4-37.5,3.6-55.7c0.8-0.1,1.6-0.1,2.3-0.2c0.5,1.9,1.3,3.8,1.3,5.7
				c0.2,13.5,0.2,27.1,0.3,40.6c0,5.6,1.7,10,8.3,9.7c6.5-0.2,8.1-4.7,8.2-10.2c0.1-12.1,0-24.1,0-36.2c0.8-0.2,1.7-0.4,2.5-0.6
				c0.8,2.7,2.2,5.4,2.4,8.2c0.6,7.2,0.8,14.5,0.9,21.7c0,7.2-0.2,13.8,6,19.9c3.3,3.2,3.5,10.4,3.6,15.8
				c0.4,18.3,0.2,36.6,0.2,55.3c13.3,0,23.8,0,35.3,0c0-13.6,0-26.9,0-39.2c16.5-5.1,31.7-9.7,48.4-14.8c0,13.7-0.2,25.8,0.1,37.9
				c0.5,22.1,1.2,44.1,2.3,66.2c0.1,2.9,2.7,5.7,4.2,8.6c1.7-2.7,4.8-5.3,4.9-8c1.7-31.2,3.3-62.4,4.4-93.7
				c0.9-26.7,2.2-53.4,1.1-80.1c-2.1-48.9-5.6-97.8-9.1-146.7c-0.5-6.9,3.2-8.5,7.4-9.2c13.3-2,26.7-3.3,40-4.8
				c1.6-0.2,3.3-0.2,5.5-0.4c1.6-6,3.1-11.9,4.2-16.1c16.2,8.4,33.7,2.3,50.2,3.7c2.2,0.2,4.8-3.3,7.5-5.3
				c0.8,18.3,15.3,19.5,29.9,20.8c8.1,0.7,16.3,1.9,23.4,2.8c-3.1,17.9-6.3,35.2-8.9,52.5c-1,6.5-1,13.1-1,19.7
				c-0.1,46.9-0.2,93.8,0.1,140.7c0.1,26.7,0.8,53.3,1.4,80c0.1,3.2,0.7,6.4,1.1,10.2c5.1,0,9.5,0,15.1,0c0-17.9,0-35.9,0-54.1
				c5-1.2,9-2.3,13.8-3.5c0-5.8,0-11.7,0-18.6c32,0,63.1,0,95.6,0c0-14.5,0-27.9,0-41.3c0-14.2,0.1-28.4-0.1-42.6
				c-0.1-11.7-0.2-11.7-13.4-14.8c0-12.8,0.1-26.2,0-39.5c-0.2-14.2-0.7-28.3-0.8-42.5c-0.1-15,1.6-16.5,16.3-15.8
				c2.6,0.1,5.2,0,9.1,0c0-23.7,0-46.9,0-71.4c21.8,3.1,22.6-18.8,36-27.3c5.1,6.7,10.1,14,16,20.5c2.5,2.7,6.6,4.9,10.2,5.5
				c6,1,8.9,3.8,8.8,9.7c-0.1,15.8,0.2,31.7-0.3,47.5c-0.4,12.8-0.1,13.9,12.3,16.1c3.8,0.7,7.7,0.4,12.5,0.7c0,19.4,0,38.9,0,58.3
				c0,10.2-0.1,20.5,0.1,30.7c0.1,5.1-0.2,9.3-7,9.2c-5.6,0-6.8,3.6-6.7,8.6c0.1,60.8,0.1,121.5,0.1,182.3c0,6.7,2.5,9.2,9.6,8.7
				c10.8-0.7,21.7-0.2,33.6-0.2c0.4-3.9,0.9-7.4,1-10.9c0.1-107.9,0.1-215.9,0.1-323.8c0-19.7-0.4-39.4,0.1-59.1
				c0.1-3.3,4.2-6.5,6.5-9.6c2.6-3.5,7.6-7.1,7.2-10.2c-0.4-3-5.7-6.4-9.6-7.8c-3.4-1.3-7.8-0.3-12.1-0.3
				c-1.3-6.6-4.8-12.9,4.6-15.5c0.3-0.1,0.9-0.3,0.9-0.3c-3.1-14.6,18.8-16.2,15.1-31.6c15.1,0,29.5,0,45,0c0-13,0-25,0-37.3
				c6.1-1.1,11.2-1.9,16.3-2.8c0.8-5,1.5-9.9,2.3-14.9c0.5,0,1,0,1.6,0c0.9,5,1.7,10,2.7,15.8c6.2-1.8,14.8,3.9,17.2-10.5
				c2.8,14.9,12.4,10.2,19,10c10.4-0.3,2.2-11.1,6.9-15.3c0.5,0.4,1.2,0.6,1.3,1c1.1,14.3,1.1,14.3,15.6,14.4c15.1,0,30.2,0,45.8,0
				c0.6-3.7,1.2-6.9,1.7-10c1.4,13,12.4,10.2,21.3,12c0,12.2,0,23.9,0,36.9c12.1,0,23.2,0.2,34.3-0.1c6.9-0.2,9.8,2.8,12.9,9.2
				c4.2,8.8,11.7,16.1,17.3,24.4c1.8,2.6,2.6,6.4,2.4,9.6c-0.1,1.7-2.9,4-5,4.7c-3.3,1.2-7.4,0.6-10.5,2c-3.3,1.5-7.3,4-8.4,7
				c-1.8,5,0.8,8.2,6.8,9.2c8.1,1.3,8.4,8.2,8.4,14.6c0,29,0,58.1,0,87.1c0,112.9,0.1,225.8,0.1,338.7c0,3.2-1.6,6.8-0.8,9.6
				c0.8,2.7,3.9,4.6,6,6.9c1.7-2.3,4.7-4.4,4.9-6.8c0.6-7.7,0.2-15.6,0.2-24.2c3.5-0.9,7.8-2.1,12.8-3.4c0-6.1,0-11.9,0-18.8
				c10,0,19.2-0.9,28.1,0.5c3,0.5,7,6.4,7.4,10.2c1.1,9.3,0.4,18.9,0.4,28.3c1.2,0.2,2.5,0.5,3.7,0.7c7.7-26,15.4-51.9,23.7-80.1
				c-7.5,2.7-13.4,4.8-20.6,7.3c1.3-12,2.5-22.9,3.8-35.3c-10.9-1.1-21.8-2.1-34-3.3c3.1-14.5,13.4-23.3,24.8-31.7
				c-3.8-4-7-7.4-10.4-10.9c22.1-17.2,45.1-14.3,66,18.5c7.5-2.1,15-4.5,22.7-6.1c13-2.7,32,7.9,37.5,20.5c2.4,5.5,0.1,8.3-5.3,10.3
				c-13.8,5.3-13.4,5.3-6.2,18.4c3.4,6.2,5.3,13.3,8.9,22.6c-15.4-2.1-24.5-12.9-37.8-16.5c-3.4,10.8-7,21.8-10.7,33.4
				c-9.6-5.6-9.1-13.7-7.8-21.8c-14.6-2.1-24.1,6.3-25.3,22.2c-0.5,6.7-0.1,13.5-0.1,22.1c5.8-3.1,10.1-5.1,14.2-7.5
				c14.7-8.5,21.1-6.1,26.2,9.8c0.9,2.7,1.9,5.3,2.9,8.1c22.2-12.7,24.6-12.1,30.9,5.8c-2.4,4.9-4.8,8.4-5.9,12.3
				c-1.2,4.3-1.2,8.9-1.8,14.5c-5.3-4-9.9-7.4-14.9-11.1c-3.8,4.6-7.2,8.6-11,13.1c-1.7-2.4-3.3-4.6-5.8-8.1
				c-2.5,5.2-4.4,9.2-6.2,13.2c-1.8,4.1-3.5,8.4-5.7,13.8c28,0,54.9,0,81.7,0c0,165.8,0,331.5,0,497.3c-858.5,0-1717,0-2575.5,0
				C615.5,1345.8,615.5,1193.2,615.5,1040.7z"/>
			<path class="st0" d="M999.6,875.9c0.1,0.7-0.1,1.7,0.3,1.9c13.7,9.5,13.2,23.3,12.6,37.8c-0.7,17.8-0.1,35.6-0.2,53.4
				c0,3.7-0.8,7.4-1.2,11.1c-1.1,0.1-2.2,0.1-3.3,0.2c-0.7-3.7-2-7.5-2-11.2c-0.2-21.1-0.4-42.2,0-63.3c0.2-8.7-2.4-13-11.8-12.4
				c-8.2,0.5-16.4,0.1-25.9,0.1c0,30.7,0,60.8,0,91.5c-10-0.1-9.4-7.2-9.9-12.4c-1.1-10.4-1.6-21-1.9-31.5
				c-0.9-30.6-1.6-61.2-2.3-91.8c0-1.2,0.4-2.4,0.7-3.6c1-0.4,2-0.8,3-1.2c2.8,6.4,6.2,12.7,8.3,19.3c1.6,4.9,1.3,10.5,2.4,15.6
				c0.6,2.5,2.6,6.4,4.1,6.5c2.8,0.2,6.5-1.3,8.6-3.3c2.7-2.6,4.3-6.5,6.5-10c4.3,1.3,8.3,2.5,12.2,3.8
				C999.9,876.2,999.6,875.9,999.6,875.9z"/>
		</g>
	</g>
</g>
<path class="st1" d="M1488.7,463.6c-3.3,3.5-14.8,124.9-14.8,124.9s19.5,7.9,28.1-3.8L1488.7,463.6z"/>
<path class="st2" d="M626.9,890.9c0,0,17.9-32.1,60.3-17.1c0,0,13.5-31.3,36.4-26.6c22.9,4.7,31.9,8.6,31.9,8.6l-11.9,10.5
	l27.8,32.8l-37.9,4.4l3.5,35.7l-23.6-16l5.6,16L706.4,951l-7.2-23.8l-20.4,33.4L666,926.5l-35,16.9l8.6-33.4L624,897.5L626.9,890.9z
	"/>
<path class="st2" d="M3080.7,887.4l-20.6,7.3l3.8-35.3l-34-3.3l24.8-31.7l-10.4-10.9c0,0,17.3-24.7,66,18.5
	c48.7,43.1,22.7-6.1,22.7-6.1l37.5,20.5l-11.5,28.7l8.9,22.6l-37.8-16.5l-10.7,33.4l-19.3-21L3080.7,887.4z"/>
<rect x="615.5" y="1294.4" class="st3" width="2575.5" height="197.3"/>
<rect x="615.5" y="1040.7" class="st4" width="2575.5" height="311.4"/>
<g>
	<g>
		<path class="st5" d="M615.5,1040.7c22.7,0,45.5,0,69.9,0c-2.9-7.7-5.5-14.5-8.4-22.2c-2.9,2.5-5.1,4.3-7.7,6.6
			c-3.2-4.1-6.3-8.1-9.8-12.6c-4.6,3.4-8.8,6.4-13.3,9.7c-3.4-8.4-7.3-16.2-9.6-24.4c-2.1-7.5,8.4-17.3,20-17.7
			c8.3-0.3,13.4-3.9,18.2-9.7c7.6-9.2,13.5-10.5,25.1-6.3c-1.3,9.8-1.3,9.8,12,17c-4.5-16.4-8.8-31.9-13.6-49.3
			c-6.9,10.2-12.8,18.9-19.5,28.8c-4.4-11.8-8.4-22.3-12.8-34.1c-11.7,5.6-22.6,10.9-35,16.9c2.5-14.3,4.9-27.3,7.2-40.7
			c-5.1-1.9-9.7-3.6-14.2-5.2c8.3-23.2,28.8-33,52.7-24.5c7.6,2.7,11.3,2.3,15.7-4.8c15.7-24.9,34.6-26,63-12.5
			c-3.9,3.4-7.5,6.6-11.9,10.5c8.7,10.3,17.3,20.4,27.8,32.8c-13.9,1.6-25.6,3-37.9,4.4c1.1,11.5,2.2,22.8,3.5,35.7
			c-7.2-3.5-12.9-6.3-20.8-10.2c4,14.3,7.4,26.7,11,39.1c1.3,4.8,2.8,9.5,4.3,14.2c1.6,5,1.2,11.5,10.3,9.5
			c8.3-1.9,14.3-4.3,13.8-14.4c-0.7-15.1-1.2-30.3-1.4-45.4c-0.1-7.2,0.9-14.3,1.5-22.5c3.8,0,7.1-0.2,10.3,0
			c8.2,0.6,15.4,0.5,14.4-11.2c-0.1-1.3,4.5-4.2,7-4.3c9.5-0.5,19.1-0.5,28.7-0.2c8.1,0.3,13-3.4,16-10.6
			c12.5-30.5,25.3-60.8,37.6-91.4c6.5-16.1,4.4-30.4-9.5-42.9c-14.6-13.1-20.6-30.1-17.8-49.9c1-7.1,1.2-14.4,2.3-21.6
			c2.4-16.7,2.5-16.7,15.6-30.4c0,8.8,0.7,17.6-0.1,26.3c-2.2,22.2,3.8,41.7,17.8,58.8c7.3,8.8,17.5,9.9,27.9,8.8
			c1.9-0.2,4.3-3.4,4.9-5.7c1.9-6.3,2.6-12.9,4.6-19.1c2.2-6.9,6.1-12.7,14.9-11.3c8.4,1.3,12.8,6.3,12.4,14.7
			c-0.2,4.5-1,9.1-2.1,13.5c-1.9,7.8,0.4,12.6,8.7,14.6c17.8,4.4,23,10.7,24.9,29.3c0.6,5.6,1.3,11.2,1.2,16.7
			c-0.3,12.5,4.2,23.1,11.3,33c1.8,2.5,3.4,5.2,3.8,9c-2.4-1.3-4.9-2.6-7.3-3.9c-5.5,4.7,5.4,33.6,16.7,44.3c-4-1.2-8-2.4-12.2-3.8
			c-2.2,3.5-3.7,7.4-6.5,10c-2.1,2-5.8,3.5-8.6,3.3c-1.6-0.1-3.6-4-4.1-6.5c-1.2-5.1-0.9-10.6-2.4-15.6c-2.1-6.6-5.5-12.9-8.3-19.3
			c-1,0.4-2,0.8-3,1.2c-0.2,1.2-0.7,2.4-0.7,3.6c0.7,30.6,1.4,61.2,2.3,91.8c0.3,10.5,0.8,21,1.9,31.5c0.5,5.2-0.1,12.3,9.9,12.4
			c0-30.7,0-60.8,0-91.5c9.5,0,17.7,0.4,25.9-0.1c9.3-0.6,11.9,3.7,11.8,12.4c-0.4,21.1-0.2,42.2,0,63.3c0,3.7,1.3,7.5,2,11.2
			c1.1-0.1,2.2-0.1,3.3-0.2c0.4-3.7,1.2-7.4,1.2-11.1c0.1-17.8-0.5-35.6,0.2-53.4c0.6-14.5,1.1-28.3-12.6-37.8
			c-0.4-0.3-0.2-1.3-0.3-1.9c11.8,8.5,24.6,3.5,38.3,3.8c-2.1-4-3.6-7-6.1-11.8c7.7,5,13.6,8.8,20.8,13.4c0.3-3.6,0.7-5.7,0.7-7.8
			c0-38.3,0.1-76.6,0-114.9c0-18.8-0.2-18.8,18.3-21.9c-0.2-6.5-0.3-13.2,8.2-15.9c1.7-0.5,2.3-5.7,2.8-8.8
			c0.9-6.1,1.4-12.2,3.9-18.2c0.3,3.4,0.8,6.7,0.8,10.1c0,8.2,2.4,14.3,7.5,21.7c6.7,9.8,8.8,24.1,9.1,36.6
			c1,40.9,0.4,81.8,0.4,122.7c0,2.2,0,4.5,0,7.5c28.6,0,56.5,0,84.9,0c1.2,4.7,2.3,8.7,3.6,13.7c12.4,0,24.8,0,38.1,0
			c0,9.7,0,18.5,0,27.6c11.7,0,22.4,0,34.4,0c0-13.5,0-26.8,0-41.2c11.7,0,22.2-0.2,32.6,0.1c6.2,0.2,9.2-2.1,9.1-8.6
			c-0.1-9.4-1.6-19.2,7-26.5c1.4-1.2,0.7-5,0.7-7.6c0-22.4,0-44.8,0-68.1c13,0.2,15-8.8,14.3-19.3c13.5,0,26.2,0,39.4,0
			c-0.6,9.2,0.9,16.3,10.9,18.8c1.6,0.4,2.9,5.4,2.9,8.2c0.3,18.2,0.1,36.3,0.1,54.5c0,3-0.8,6.6,0.6,8.8
			c11.3,17.9,6.6,37.8,7.5,56.9c0.1,1.3,0.1,2.6,0.3,3.9c0.1,0.6,0.6,1.1,2.3,4c6.5-7.4,12.5-14.2,19.1-21.6
			c4.1,7.6,10.6,10.7,17,6.1c5.3-3.8,11.5-10.4,11.9-16.1c1.4-20.9,1.1-42,0.5-63c-0.3-12.4,1.5-16.6,11.9-17.2
			c0-14.7,0.1-29.4,0-44.2c-0.2-22.1-0.7-44.2-0.9-66.2c0-1.9,0-4.6,1.1-5.7c15.3-14.3,7.8-32.9,9.2-49.7c1-11.5-0.3-23.1,0.2-34.6
			c0.2-3.9,1.7-9.9,4.5-11.2c9.9-4.8,9.2-13.3,9.8-21.7c2.7-35.1,5.4-70.2,8.2-105.3c0.1-1.2,0.8-2.3,3.3-3.5
			c1.5,13.7,3.2,27.4,4.5,41.1c2.2,23.9,4.1,47.8,6.3,71.7c0.3,2.9,0.8,6.3,2.5,8.4c15.8,18.7,10.2,41.4,12,62.6
			c0.6,7.1-0.4,14.4-1,21.7c-0.7,9.5,1.2,16.2,12.3,19c7.8,1.9,9.7,9.6,9.7,17.6c-0.2,29.4,0.2,58.8-0.3,88.2
			c-0.1,8.6,1,14.4,11.8,13.1c0,44.4,0,88.2,0,133.1c14.9,0,29.2,0,44.4,0c0-17.8,0-36.1,0-55.8c18.9,0,37-1.2,54.8,0.6
			c7.4,0.7,14.3,7.1,14,17.6c-0.6,16.7-0.2,33.5-0.2,50.6c5.4,0,8.6,0,12.6,0c0-26,0-51.7,0-77.3c0-12.2,0.5-24.5-0.1-36.6
			c-0.4-9,0.4-15.9,10-14.9c4.2-9.2,7.9-17.3,11.6-25.4c1.1,0.2,2.2,0.4,3.3,0.6c0.3,5.9,1,11.8,0.7,17.6c-0.3,5.9,3,7.2,7.7,7.9
			c4.8,0.7,6.9-0.9,8.3-5.8c2.2-7.8,5.8-15.2,8.9-23c7.1,9.3-5.3,28.2,16.5,29.9c0,16.5,0,32.9,0,50.4c20.6,0,40.2,0,61.3,0
			c0,10.8,0,20.4,0,31.1c9.1-3.2,14.3-6.2,8.9-15.3c-1.3-2.2-2.3-6.8-1.2-7.8c8.7-8,3.6-13.6-3.2-19.2c8-7.1,10.6-14.2,0.4-21.7
			c7.8-7.3,9.7-14.7,0.1-22c7.6-7.4,9.6-14.7,0-21.8c6.8-7.5,10.6-14.8-0.7-22.6c10.1-6.8,10.4-14,1.5-20.6
			c7.5-13.1,7.5-13.1-0.3-22.5c4.4-6.6,13.3-14.2-0.2-21.1c4.9-8,11.5-15.4-0.4-22.4c6.8-7.9,9.6-15.4-0.2-22.7
			c8.8-7.1,9.8-14,0.7-21.2c6-7.6,10.6-15.3,0.1-21.8c3.9-5.8,7.4-11.1,11.3-17c-4.4-2-7.6-3.4-9.8-4.5c0.3-4.8,0.5-8.9,0.8-13
			c3.7-3.8,6.1-7.9,0.4-14.3c-6.7-7.5-1.5-11.7,5.1-13.7c12-3.6,24.3-6,36.5-9c3.1-0.8,6.2-1.6,12.3-3.3
			c-26.7-14.2-51.1-27.2-75.4-40.1c0.2-0.7,0.4-1.5,0.6-2.2c16.2,0,32.5,0,49.5,0c0.7-6,1.3-11.1,1.9-16.5c46.4,0,92.5,0,139.3,0
			c0.9,4.7,1.8,9.4,2.9,15.3c17.3,0,34.5,0,51.8,0c0.2,0.7,0.3,1.5,0.5,2.2c-24.6,13.4-49.3,26.8-76.3,41.5
			c13.3,3.2,24.1,5.8,35,8.5c3.8,0.9,7.7,1.7,11.4,3.1c7.2,2.6,11.4,6.2,6.4,14.7c-4,6.8-0.8,20.1,5.2,25.2c-4.1,2-8.1,4-12.7,6.3
			c1.6,2.8,2.9,5.4,4.5,7.8c1.6,2.5,3.4,4.9,5.4,7.8c-5.6,6.8-11.9,14,1.1,20.4c-6.4,8.1-11.4,15.8-0.9,23c-9,10.9-9,11.2-0.2,22.6
			c-5.5,6.9-11.3,14.2,0.7,21.3c-5.6,7.2-11.7,14.3-0.3,21.9c-7.3,7.5-9,15.1,0.2,22.8c-7.9,6.9-8.8,14.1,0,22
			c-9.4,6.5-9.9,13.6-0.1,20.6c-4.5,7.2-14.3,14.3-0.1,21.9c-4.8,7.5-12.6,15.1,0.9,22.1c-10.4,7.9-10.3,15.6,0.1,22.8
			c-9.1,7-10.8,13.7-1.8,21.5c2.2,1.9,2.5,6.5,2.7,10c0.4,8.5,0.1,17,0.1,26c6.8,0,12.6,0,19.7,0c0-37.7,0-75.8,0-114.5
			c7.3,0,13.4,0,20.7,0c0,9.2,0,18.6,0,29c13.8,0.6,26.5,1.2,39.8,1.9c0.8,11,1.5,22,2.3,33c1.3,0,2.6,0,3.9,0
			c7.7-10.6,2.4-23.7,5.2-35.8c5.8,0,11.6,0,17.5,0c3.7,16,15.3,26,35.1,29.1c0.6-6.7,1.6-13.4,1.8-20c0.3-9.9,0.3-19.8,0-29.7
			c-0.2-8-0.3-15.4,12.1-12.9c1.3-19.3,2.4-37.5,3.6-55.7c0.8-0.1,1.6-0.1,2.3-0.2c0.5,1.9,1.3,3.8,1.3,5.7
			c0.2,13.5,0.2,27.1,0.3,40.6c0,5.6,1.7,10,8.3,9.7c6.5-0.2,8.1-4.7,8.2-10.2c0.1-12.1,0-24.1,0-36.2c0.8-0.2,1.7-0.4,2.5-0.6
			c0.8,2.7,2.2,5.4,2.4,8.2c0.6,7.2,0.8,14.5,0.9,21.7c0,7.2-0.2,13.8,6,19.9c3.3,3.2,3.5,10.4,3.6,15.8c0.4,18.3,0.2,36.6,0.2,55.3
			c13.3,0,23.8,0,35.3,0c0-13.6,0-26.9,0-39.2c16.5-5.1,31.7-9.7,48.4-14.8c0,13.7-0.2,25.8,0.1,37.9c0.5,22.1,1.2,44.1,2.3,66.2
			c0.1,2.9,2.7,5.7,4.2,8.6c1.7-2.7,4.8-5.3,4.9-8c1.7-31.2,3.3-62.4,4.4-93.7c0.9-26.7,2.2-53.4,1.1-80.1
			c-2.1-48.9-5.6-97.8-9.1-146.7c-0.5-6.9,3.2-8.5,7.4-9.2c13.3-2,26.7-3.3,40-4.8c1.6-0.2,3.3-0.2,5.5-0.4c1.6-6,3.1-11.9,4.2-16.1
			c16.2,8.4,33.7,2.3,50.2,3.7c2.2,0.2,4.8-3.3,7.5-5.3c0.8,18.3,15.3,19.5,29.9,20.8c8.1,0.7,16.3,1.9,23.4,2.8
			c-3.1,17.9-6.3,35.2-8.9,52.5c-1,6.5-1,13.1-1,19.7c-0.1,46.9-0.2,93.8,0.1,140.7c0.1,26.7,0.8,53.3,1.4,80
			c0.1,3.2,0.7,6.4,1.1,10.2c5.1,0,9.5,0,15.1,0c0-17.9,0-35.9,0-54.1c5-1.2,9-2.3,13.8-3.5c0-5.8,0-11.7,0-18.6c32,0,63.1,0,95.6,0
			c0-14.5,0-27.9,0-41.3c0-14.2,0.1-28.4-0.1-42.6c-0.1-11.7-0.2-11.7-13.4-14.8c0-12.8,0.1-26.2,0-39.5
			c-0.2-14.2-0.7-28.3-0.8-42.5c-0.1-15,1.6-16.5,16.3-15.8c2.6,0.1,5.2,0,9.1,0c0-23.7,0-46.9,0-71.4c21.8,3.1,22.6-18.8,36-27.3
			c5.1,6.7,10.1,14,16,20.5c2.5,2.7,6.6,4.9,10.2,5.5c6,1,8.9,3.8,8.8,9.7c-0.1,15.8,0.2,31.7-0.3,47.5
			c-0.4,12.8-0.1,13.9,12.3,16.1c3.8,0.7,7.7,0.4,12.5,0.7c0,19.4,0,38.9,0,58.3c0,10.2-0.1,20.5,0.1,30.7c0.1,5.1-0.2,9.3-7,9.2
			c-5.6,0-6.8,3.6-6.7,8.6c0.1,60.8,0.1,121.5,0.1,182.3c0,6.7,2.5,9.2,9.6,8.7c10.8-0.7,21.7-0.2,33.6-0.2c0.4-3.9,0.9-7.4,1-10.9
			c0.1-107.9,0.1-215.9,0.1-323.8c0-19.7-0.4-39.4,0.1-59.1c0.1-3.3,4.2-6.5,6.5-9.6c2.6-3.5,7.6-7.1,7.2-10.2
			c-0.4-3-5.7-6.4-9.6-7.8c-3.4-1.3-7.8-0.3-12.1-0.3c-1.3-6.6-4.8-12.9,4.6-15.5c0.3-0.1,0.9-0.3,0.9-0.3
			c-3.1-14.6,18.8-16.2,15.1-31.6c15.1,0,29.5,0,45,0c0-13,0-25,0-37.3c6.1-1.1,11.2-1.9,16.3-2.8c0.8-5,1.5-9.9,2.3-14.9
			c0.5,0,1,0,1.6,0c0.9,5,1.7,10,2.7,15.8c6.2-1.8,14.8,3.9,17.2-10.5c2.8,14.9,12.4,10.2,19,10c10.4-0.3,2.2-11.1,6.9-15.3
			c0.5,0.4,1.2,0.6,1.3,1c1.1,14.3,1.1,14.3,15.6,14.4c15.1,0,30.2,0,45.8,0c0.6-3.7,1.2-6.9,1.7-10c1.4,13,12.4,10.2,21.3,12
			c0,12.2,0,23.9,0,36.9c12.1,0,23.2,0.2,34.3-0.1c6.9-0.2,9.8,2.8,12.9,9.2c4.2,8.8,11.7,16.1,17.3,24.4c1.8,2.6,2.6,6.4,2.4,9.6
			c-0.1,1.7-2.9,4-5,4.7c-3.3,1.2-7.4,0.6-10.5,2c-3.3,1.5-7.3,4-8.4,7c-1.8,5,0.8,8.2,6.8,9.2c8.1,1.3,8.4,8.2,8.4,14.6
			c0,29,0,58.1,0,87.1c0,112.9,0.1,225.8,0.1,338.7c0,3.2-1.6,6.8-0.8,9.6c0.8,2.7,3.9,4.6,6,6.9c1.7-2.3,4.7-4.4,4.9-6.8
			c0.6-7.7,0.2-15.6,0.2-24.2c3.5-0.9,7.8-2.1,12.8-3.4c0-6.1,0-11.9,0-18.8c10,0,19.2-0.9,28.1,0.5c3,0.5,7,6.4,7.4,10.2
			c1.1,9.3,0.4,18.9,0.4,28.3c1.2,0.2,2.5,0.5,3.7,0.7c7.7-26,15.4-51.9,23.7-80.1c-7.5,2.7-13.4,4.8-20.6,7.3
			c1.3-12,2.5-22.9,3.8-35.3c-10.9-1.1-21.8-2.1-34-3.3c3.1-14.5,13.4-23.3,24.8-31.7c-3.8-4-7-7.4-10.4-10.9
			c22.1-17.2,45.1-14.3,66,18.5c7.5-2.1,15-4.5,22.7-6.1c13-2.7,32,7.9,37.5,20.5c2.4,5.5,0.1,8.3-5.3,10.3
			c-13.8,5.3-13.4,5.3-6.2,18.4c3.4,6.2,5.3,13.3,8.9,22.6c-15.4-2.1-24.5-12.9-37.8-16.5c-3.4,10.8-7,21.8-10.7,33.4
			c-9.6-5.6-9.1-13.7-7.8-21.8c-14.6-2.1-24.1,6.3-25.3,22.2c-0.5,6.7-0.1,13.5-0.1,22.1c5.8-3.1,10.1-5.1,14.2-7.5
			c14.7-8.5,21.1-6.1,26.2,9.8c0.9,2.7,1.9,5.3,2.9,8.1c22.2-12.7,24.6-12.1,30.9,5.8c-2.4,4.9-4.8,8.4-5.9,12.3
			c-1.2,4.3-1.2,8.9-1.8,14.5c-5.3-4-9.9-7.4-14.9-11.1c-3.8,4.6-7.2,8.6-11,13.1c-1.7-2.4-3.3-4.6-5.8-8.1
			c-2.5,5.2-4.4,9.2-6.2,13.2c-1.8,4.1-3.5,8.4-5.7,13.8c28,0,54.9,0,81.7,0c0,165.8,0,331.5,0,497.3c-858.5,0-1717,0-2575.5,0
			C615.5,1345.8,615.5,1193.2,615.5,1040.7z"/>
		<path class="st5" d="M999.6,875.9c0.1,0.7-0.1,1.7,0.3,1.9c13.7,9.5,13.2,23.3,12.6,37.8c-0.7,17.8-0.1,35.6-0.2,53.4
			c0,3.7-0.8,7.4-1.2,11.1c-1.1,0.1-2.2,0.1-3.3,0.2c-0.7-3.7-2-7.5-2-11.2c-0.2-21.1-0.4-42.2,0-63.3c0.2-8.7-2.4-13-11.8-12.4
			c-8.2,0.5-16.4,0.1-25.9,0.1c0,30.7,0,60.8,0,91.5c-10-0.1-9.4-7.2-9.9-12.4c-1.1-10.4-1.6-21-1.9-31.5
			c-0.9-30.6-1.6-61.2-2.3-91.8c0-1.2,0.4-2.4,0.7-3.6c1-0.4,2-0.8,3-1.2c2.8,6.4,6.2,12.7,8.3,19.3c1.6,4.9,1.3,10.5,2.4,15.6
			c0.6,2.5,2.6,6.4,4.1,6.5c2.8,0.2,6.5-1.3,8.6-3.3c2.7-2.6,4.3-6.5,6.5-10c4.3,1.3,8.3,2.5,12.2,3.8
			C999.9,876.2,999.6,875.9,999.6,875.9z"/>
	</g>
</g>
<line class="st6" x1="406.9" y1="1500" x2="3414.6" y2="1500"/>
<circle class="st1" cx="2267.7" cy="263.9" r="122.2"/>
<line class="st7" x1="2257.2" y1="18.4" x2="2257.2" y2="128.7"/>
<line class="st7" x1="2267.7" y1="412.4" x2="2267.7" y2="490"/>
<line class="st7" x1="2422.4" y1="270.5" x2="2491.7" y2="270.5"/>
<line class="st7" x1="2158.1" y1="152.2" x2="2103.6" y2="89.3"/>
<line class="st7" x1="2130.8" y1="330.5" x2="2076.3" y2="347.3"/>
<line class="st7" x1="2195.9" y1="396.5" x2="2170.7" y2="445.8"/>
<line class="st7" x1="2382.5" y1="152.2" x2="2447.6" y2="104"/>
<line class="st7" x1="2336.4" y1="119.9" x2="2374.2" y2="41.1"/>
<line class="st7" x1="2130.8" y1="238.2" x2="2061.6" y2="227.8"/>
<line class="st7" x1="2336.4" y1="397.7" x2="2392" y2="469"/>
<line class="st7" x1="2401.2" y1="343" x2="2443.6" y2="370.2"/>
<line class="st7" x1="2409.8" y1="213.1" x2="2512.6" y2="171.1"/>
<circle class="st8" cx="1687.7" cy="393" r="36.4"/>
<path class="st8" d="M1083.7,505.3c0,0,151.7-115.3,170,63.7"/>
<path class="st8" d="M998.8,518.9c0,0,60.6-189.5,139.5-49.9"/>
<path class="st8" d="M2686.2,299c0,0,48.6-51.6,81.9,0"/>
<path class="st8" d="M2932,299c0,0-166.9-227.3-204.9-22.6"/>
<path class="st8" d="M3007.9,270.5c0,0,36.4-88.9-21.2-118.3S2871.9,233,2871.9,233"/>
<path class="st8" d="M3236.1,703.9c0,12.4-10.1,22.5-22.5,22.5s-22.5-10.1-22.5-22.5c0-12.4,10.1-22.5,22.5-22.5
	S3236.1,691.4,3236.1,703.9z"/>
<path class="st8" d="M1244.6,141.1c2.9,22.2,22.4,37.8,42.5,36.4c22.4-1.5,40.6-23.8,36.4-48.6"/>
</svg>
