<?xml version="1.0" ?><!DOCTYPE svg  PUBLIC '-//W3C//DTD SVG 1.1//EN'  'http://www.w3.org/Graphics/SVG/1.1/DTD/svg11.dtd'><svg height="240px" id="Layer_4_copy" style="enable-background:new 0 0 240 240;" version="1.1" viewBox="0 0 240 240" width="240px" xml:space="preserve" xmlns="http://www.w3.org/2000/svg" xmlns:xlink="http://www.w3.org/1999/xlink"><path d="M0,0v240h240V0H0z M227.983,228H12.017V12h215.966V228z M97.444,135.429h16.022c17.675,0,31.377-3.793,41.104-11.381  c9.729-7.587,14.591-18.492,14.591-32.715c0-27.301-17.452-40.952-52.357-40.952H79.896v139.238h17.548V135.429z M97.444,65.333  h17.739c12.27,0,21.299,2.223,27.085,6.666c5.785,4.445,8.678,11.144,8.678,20.096c0,9.904-3.116,17.095-9.346,21.571  c-6.231,4.477-16.277,6.714-30.137,6.714h-14.02V65.333z"/></svg>