<?xml version="1.0" standalone="no"?><!DOCTYPE svg PUBLIC "-//W3C//DTD SVG 1.1//EN" "http://www.w3.org/Graphics/SVG/1.1/DTD/svg11.dtd"><svg class="icon" height="512" viewBox="0 0 1024 1024" version="1.1" xmlns="http://www.w3.org/2000/svg"><path d="M713.694163 138.457422c-53.571103-51.955302-124.883265-80.626295-200.75835-80.626295-75.682703 0-147.05831 28.66997-200.630437 80.626295-53.571103 52.051493-83.09758 121.082706-83.09758 194.643072 0 73.529667 29.526477 142.625348 83.09758 194.643072 19.166525 18.628266 40.614 34.120099 63.645552 46.412053-59.558467 18.59552-115.252931 48.976458-163.53354 90.034573C129.257387 734.902696 74.830801 830.893934 59.180356 934.614204c-2.249227 15.047718 8.395204 29.018917 24.045649 31.205723 1.330298 0.25378 2.598174 0.347924 3.991917 0.347924 13.876032 0 26.041096-9.852392 28.099988-23.569812 28.638247-190.55701 199.712531-334.258876 397.617903-334.258876 75.874061 0 147.187247-28.575826 200.75835-80.594573 53.66627-52.017724 83.162048-121.113405 83.162048-194.643072C796.919656 259.540128 767.423879 190.508915 713.694163 138.457422L713.694163 138.457422 713.694163 138.457422zM512.936837 553.342594c-125.072577 0-226.988758-98.81147-226.988758-220.2421 0-121.461329 101.852736-220.209354 226.988758-220.209354 125.32738 0 227.14737 98.748025 227.14737 220.209354C740.084207 454.468702 638.264217 553.342594 512.936837 553.342594L512.936837 553.342594 512.936837 553.342594zM963.207937 934.520059c-6.589069-46.982034-20.844747-92.442412-42.419112-134.989437-21.067828-41.406039-48.598858-79.32772-81.862449-112.560612-10.992355-10.960633-28.955472-11.214413-40.266076-0.632403-11.18269 10.549264-11.404748 28.004821-0.537236 38.934754 59.684334 59.685357 97.384981 134.578068 108.662839 216.628806 1.934049 13.781888 14.066367 23.823592 28.132734 23.823592 1.235131 0 2.566452-0.063445 3.800559-0.222057C954.369641 963.507254 965.268876 949.567777 963.207937 934.520059L963.207937 934.520059 963.207937 934.520059zM963.207937 934.520059" fill="#707070" /></svg>